<?xml version="1.0" encoding="UTF-8" standalone="no"?>
<!-- Created with Inkscape (http://www.inkscape.org/) -->

<svg
   version="1.1"
   id="svg18"
   width="933.33331"
   height="536"
   viewBox="0 0 933.33331 536"
   sodipodi:docname="logo.svg"
   inkscape:version="1.2.1 (0f2f062aeb, 2022-09-21, custom)"
   xmlns:inkscape="http://www.inkscape.org/namespaces/inkscape"
   xmlns:sodipodi="http://sodipodi.sourceforge.net/DTD/sodipodi-0.dtd"
   xmlns="http://www.w3.org/2000/svg"
   xmlns:svg="http://www.w3.org/2000/svg">
  <defs
     id="defs22">
    <linearGradient
       x1="0"
       y1="0"
       x2="1"
       y2="0"
       gradientUnits="userSpaceOnUse"
       gradientTransform="matrix(77.446159,-143.683,-143.683,-77.446159,302.42203,274.83688)"
       spreadMethod="pad"
       id="linearGradient48">
      <stop
         style="stop-opacity:1;stop-color:#f8f8f8"
         offset="0"
         id="stop42" />
      <stop
         style="stop-opacity:1;stop-color:#f8f8f8"
         offset="0.301075"
         id="stop44" />
      <stop
         style="stop-opacity:1;stop-color:#b6b6b6"
         offset="1"
         id="stop46" />
    </linearGradient>
    <linearGradient
       x1="0"
       y1="0"
       x2="1"
       y2="0"
       gradientUnits="userSpaceOnUse"
       gradientTransform="matrix(77.446159,-143.683,-143.683,-77.446159,281.9433,263.79871)"
       spreadMethod="pad"
       id="linearGradient70">
      <stop
         style="stop-opacity:1;stop-color:#f8f8f8"
         offset="0"
         id="stop64" />
      <stop
         style="stop-opacity:1;stop-color:#f8f8f8"
         offset="0.301075"
         id="stop66" />
      <stop
         style="stop-opacity:1;stop-color:#b6b6b6"
         offset="1"
         id="stop68" />
    </linearGradient>
    <linearGradient
       x1="0"
       y1="0"
       x2="1"
       y2="0"
       gradientUnits="userSpaceOnUse"
       gradientTransform="matrix(77.446159,-143.683,-143.683,-77.446159,285.22662,265.56845)"
       spreadMethod="pad"
       id="linearGradient92">
      <stop
         style="stop-opacity:1;stop-color:#f8f8f8"
         offset="0"
         id="stop86" />
      <stop
         style="stop-opacity:1;stop-color:#f8f8f8"
         offset="0.301075"
         id="stop88" />
      <stop
         style="stop-opacity:1;stop-color:#b6b6b6"
         offset="1"
         id="stop90" />
    </linearGradient>
    <linearGradient
       x1="0"
       y1="0"
       x2="1"
       y2="0"
       gradientUnits="userSpaceOnUse"
       gradientTransform="matrix(77.446159,-143.683,-143.683,-77.446159,305.24817,276.3602)"
       spreadMethod="pad"
       id="linearGradient114">
      <stop
         style="stop-opacity:1;stop-color:#f8f8f8"
         offset="0"
         id="stop108" />
      <stop
         style="stop-opacity:1;stop-color:#f8f8f8"
         offset="0.301075"
         id="stop110" />
      <stop
         style="stop-opacity:1;stop-color:#b6b6b6"
         offset="1"
         id="stop112" />
    </linearGradient>
    <linearGradient
       x1="0"
       y1="0"
       x2="1"
       y2="0"
       gradientUnits="userSpaceOnUse"
       gradientTransform="matrix(77.446159,-143.683,-143.683,-77.446159,332.13403,290.85187)"
       spreadMethod="pad"
       id="linearGradient136">
      <stop
         style="stop-opacity:1;stop-color:#f8f8f8"
         offset="0"
         id="stop130" />
      <stop
         style="stop-opacity:1;stop-color:#f8f8f8"
         offset="0.301075"
         id="stop132" />
      <stop
         style="stop-opacity:1;stop-color:#b6b6b6"
         offset="1"
         id="stop134" />
    </linearGradient>
    <linearGradient
       x1="0"
       y1="0"
       x2="1"
       y2="0"
       gradientUnits="userSpaceOnUse"
       gradientTransform="matrix(2.0198975,-42.417847,-42.417847,-2.0198975,172.64668,317.97791)"
       spreadMethod="pad"
       id="linearGradient158">
      <stop
         style="stop-opacity:1;stop-color:#f8f8f8"
         offset="0"
         id="stop152" />
      <stop
         style="stop-opacity:1;stop-color:#f8f8f8"
         offset="0.301075"
         id="stop154" />
      <stop
         style="stop-opacity:1;stop-color:#b6b6b6"
         offset="1"
         id="stop156" />
    </linearGradient>
    <linearGradient
       x1="0"
       y1="0"
       x2="1"
       y2="0"
       gradientUnits="userSpaceOnUse"
       gradientTransform="matrix(2.0198975,-42.417847,-42.417847,-2.0198975,264.4407,322.34906)"
       spreadMethod="pad"
       id="linearGradient180">
      <stop
         style="stop-opacity:1;stop-color:#f8f8f8"
         offset="0"
         id="stop174" />
      <stop
         style="stop-opacity:1;stop-color:#f8f8f8"
         offset="0.301075"
         id="stop176" />
      <stop
         style="stop-opacity:1;stop-color:#b6b6b6"
         offset="1"
         id="stop178" />
    </linearGradient>
    <linearGradient
       x1="0"
       y1="0"
       x2="1"
       y2="0"
       gradientUnits="userSpaceOnUse"
       gradientTransform="matrix(2.0198975,-42.417847,-42.417847,-2.0198975,412.19385,329.38492)"
       spreadMethod="pad"
       id="linearGradient202">
      <stop
         style="stop-opacity:1;stop-color:#f8f8f8"
         offset="0"
         id="stop196" />
      <stop
         style="stop-opacity:1;stop-color:#f8f8f8"
         offset="0.301075"
         id="stop198" />
      <stop
         style="stop-opacity:1;stop-color:#b6b6b6"
         offset="1"
         id="stop200" />
    </linearGradient>
    <linearGradient
       x1="0"
       y1="0"
       x2="1"
       y2="0"
       gradientUnits="userSpaceOnUse"
       gradientTransform="matrix(2.0198975,-42.417847,-42.417847,-2.0198975,552.09918,336.04706)"
       spreadMethod="pad"
       id="linearGradient224">
      <stop
         style="stop-opacity:1;stop-color:#f8f8f8"
         offset="0"
         id="stop218" />
      <stop
         style="stop-opacity:1;stop-color:#f8f8f8"
         offset="0.301075"
         id="stop220" />
      <stop
         style="stop-opacity:1;stop-color:#b6b6b6"
         offset="1"
         id="stop222" />
    </linearGradient>
    <linearGradient
       x1="0"
       y1="0"
       x2="1"
       y2="0"
       gradientUnits="userSpaceOnUse"
       gradientTransform="matrix(2.0198975,-42.417847,-42.417847,-2.0198975,587.98431,337.75589)"
       spreadMethod="pad"
       id="linearGradient246">
      <stop
         style="stop-opacity:1;stop-color:#f8f8f8"
         offset="0"
         id="stop240" />
      <stop
         style="stop-opacity:1;stop-color:#f8f8f8"
         offset="0.301075"
         id="stop242" />
      <stop
         style="stop-opacity:1;stop-color:#b6b6b6"
         offset="1"
         id="stop244" />
    </linearGradient>
    <linearGradient
       x1="0"
       y1="0"
       x2="1"
       y2="0"
       gradientUnits="userSpaceOnUse"
       gradientTransform="matrix(2.0198975,-42.417847,-42.417847,-2.0198975,98.035049,314.42496)"
       spreadMethod="pad"
       id="linearGradient268">
      <stop
         style="stop-opacity:1;stop-color:#f8f8f8"
         offset="0"
         id="stop262" />
      <stop
         style="stop-opacity:1;stop-color:#f8f8f8"
         offset="0.301075"
         id="stop264" />
      <stop
         style="stop-opacity:1;stop-color:#b6b6b6"
         offset="1"
         id="stop266" />
    </linearGradient>
  </defs>
  <sodipodi:namedview
     id="namedview20"
     pagecolor="#ffffff"
     bordercolor="#000000"
     borderopacity="0.25"
     inkscape:showpageshadow="2"
     inkscape:pageopacity="0.0"
     inkscape:pagecheckerboard="0"
     inkscape:deskcolor="#d1d1d1"
     showgrid="false"
     inkscape:zoom="1.4701493"
     inkscape:cx="304.05076"
     inkscape:cy="268"
     inkscape:window-width="1920"
     inkscape:window-height="989"
     inkscape:window-x="0"
     inkscape:window-y="0"
     inkscape:window-maximized="1"
     inkscape:current-layer="g26">
    <inkscape:page
       x="0"
       y="0"
       id="page24"
       width="933.33331"
       height="536"
       inkscape:export-filename="Page 1.svg"
       inkscape:export-xdpi="96"
       inkscape:export-ydpi="96" />
  </sodipodi:namedview>
  <g
     id="g26"
     inkscape:groupmode="layer"
     inkscape:label="Page 1"
     transform="matrix(1.3333333,0,0,-1.3333333,0,536)">
    <path
       d="M 0,0 H 700 V 402 H 0 Z"
       style="fill:#000000;fill-opacity:1;fill-rule:nonzero;stroke:none"
       id="path28" />
    <g
       id="g30">
      <g
         id="g32">
        <g
           id="g38">
          <g
             id="g40">
            <path
               d="m 287.863,251.309 c 0.371,-10.876 0.477,-21.763 1.054,-32.626 v 0 c 0.833,-15.695 2.039,-31.369 4.381,-46.928 v 0 c 1.205,-8.008 2.125,-16.079 3.776,-23.996 v 0 c 2.494,-11.959 5.228,-23.884 8.375,-35.686 v 0 C 310.702,92.37 317.937,73.408 328.23,55.72 v 0 c 4.939,-8.487 10.472,-16.544 17.706,-23.295 v 0 c 1.728,-1.613 1.738,-1.612 3.441,0.026 v 0 c 6.28,6.043 11.301,13.079 15.834,20.455 v 0 c 8.582,13.962 14.921,28.98 20.138,44.46 v 0 c 6.487,19.244 11.078,38.963 14.248,59.029 v 0 c 2.284,14.453 4.452,28.926 5.282,43.535 v 0 c 0.959,16.888 1.499,33.798 2.2,50.699 v 0 c 0.087,2.105 0.029,2.117 -2.11,2.117 v 0 c -19.153,0.003 -38.306,0.002 -57.46,0.002 v 0 c 0,-0.017 0,-0.051 0,-0.051 v 0 c -5.877,0 -11.754,-0.004 -17.63,0.001 v 0 c -13.441,0.013 -26.881,0.025 -40.322,0.058 v 0 c -0.02,0 -0.04,0 -0.06,0 v 0 c -1.015,0 -1.681,-0.079 -1.634,-1.447 M 340.787,47.397 c -9.303,13.128 -16.16,27.529 -21.86,42.513 v 0 c -6.605,17.359 -11.667,35.171 -14.914,53.451 v 0 c -2.119,11.925 -4.065,23.905 -5.415,35.936 v 0 c -1.601,14.257 -2.588,28.588 -3.625,42.902 v 0 c -0.545,7.537 -0.599,15.108 -0.951,22.66 v 0 c -0.07,1.513 0.386,1.947 1.905,1.945 v 0 c 32.86,-0.036 65.721,-0.023 98.582,-0.02 v 0 c 1.686,0 3.374,-0.053 5.059,-0.002 v 0 c 0.954,0.029 1.414,-0.248 1.378,-1.28 v 0 c -0.44,-12.555 -0.603,-25.127 -1.366,-37.662 v 0 c -0.633,-10.413 -1.634,-20.83 -3.073,-31.161 v 0 c -1.83,-13.127 -4.007,-26.217 -6.499,-39.235 v 0 c -3.904,-20.39 -9.979,-40.162 -18.325,-59.19 v 0 C 366.411,66.235 360.347,54.635 352.206,44.246 v 0 c -1.396,-1.782 -2.918,-3.467 -4.64,-5.502 v 0 c -2.389,3.035 -4.721,5.748 -6.779,8.653"
               style="fill:url(#linearGradient48);stroke:none"
               id="path50" />
          </g>
        </g>
      </g>
    </g>
    <g
       id="g52">
      <g
         id="g54">
        <g
           id="g60">
          <g
             id="g62">
            <path
               d="m 346.647,134.835 -40.468,27.273 c 1,-7.099 2.18,-14.179 3.434,-21.236 v 0 c 2.833,-15.949 7.25,-31.491 13.013,-46.638 v 0 C 327.6,81.159 333.583,68.594 341.7,57.138 v 0 c 1.797,-2.535 3.831,-4.901 5.916,-7.55 v 0 c 1.502,1.776 2.83,3.247 4.048,4.801 v 0 c 7.104,9.065 12.395,19.187 16.995,29.675 v 0 c 7.282,16.602 12.583,33.855 15.989,51.647 v 0 c 1.709,8.923 3.241,17.888 4.596,26.876 v 0 z"
               style="fill:url(#linearGradient70);stroke:none"
               id="path72" />
          </g>
        </g>
      </g>
    </g>
    <g
       id="g74">
      <g
         id="g76">
        <g
           id="g82">
          <g
             id="g84">
            <path
               d="m 300.205,241.653 c 0,0 -1.126,-29.976 3.87,-69.066 v 0 l 5.601,-3.775 c -0.002,8.818 -0.009,16.813 0.005,24.797 v 0 c 0.005,2.86 2.921,6.827 4.932,6.203 v 0 c 2.792,-0.869 5.263,-2.302 5.163,-6.216 v 0 c -0.239,-9.358 -0.079,-18.726 -0.078,-28.091 v 0 c 0,-1.38 0.157,-2.627 0.463,-3.759 v 0 l 9.222,-6.216 c -0.013,13.026 -0.177,26.008 0.105,38.98 v 0 c 0.086,3.926 -0.17,7.336 -2.843,9.722 v 0 l 0.032,0.008 c -0.38,0.387 -0.826,0.684 -1.289,0.919 v 0 c -0.313,0.193 -0.644,0.379 -1.003,0.555 v 0 c -0.685,0.307 -1.257,0.478 -1.257,0.478 v 0 c 0.299,0.113 0.612,0.262 0.923,0.42 v 0 c -0.002,0.006 -0.002,0.011 -0.003,0.017 v 0 c 0.1,0.041 0.191,0.087 0.288,0.13 v 0 c 0.997,0.536 1.889,1.151 2.088,1.29 v 0 c 1.73,1.446 2.311,3.076 2.311,3.076 v 0 l -0.004,-0.001 c 0.777,1.858 0.877,4.108 0.737,6.569 v 0 c -0.344,6.082 -0.081,12.198 -0.081,18.299 v 0 c 0,1.901 0,3.804 0,5.661 v 0 z m 9.843,-9.802 h 9.595 c 0,-4.21 0.235,-8.389 0,-12.507 v 0 -3.889 l -9.611,-7.099 z"
               style="fill:url(#linearGradient92);stroke:none"
               id="path94" />
          </g>
        </g>
      </g>
    </g>
    <g
       id="g96">
      <g
         id="g98">
        <g
           id="g104">
          <g
             id="g106">
            <path
               d="m 333.62,241.65 c -0.127,-0.943 -0.299,-1.628 -0.3,-2.313 v 0 c -0.016,-28.802 -0.053,-57.605 0.083,-86.405 v 0 c 0,-0.038 0.009,-0.08 0.011,-0.118 v 0 l 13.846,-9.332 15.535,10.12 c 10e-4,0.104 0.009,0.199 0.008,0.304 v 0 c -0.137,12.769 -0.062,25.539 -0.062,38.308 v 0 5.061 h -13.051 -1.187 v -10.567 h 4.547 c -0.005,-9.371 -0.197,-18.474 0.096,-27.558 v 0 c 0.127,-3.951 -1.85,-5.889 -4.998,-6.75 v 0 c -2.425,-0.664 -5.15,3.244 -5.15,6.868 v 0 c -0.003,22.7 -0.003,45.401 0.012,68.103 v 0 c 0.002,1.482 0.146,2.964 0.225,4.45 v 0 h 9.781 v -23.958 h 9.368 v 33.787 z"
               style="fill:url(#linearGradient114);stroke:none"
               id="path116" />
          </g>
        </g>
      </g>
    </g>
    <g
       id="g118">
      <g
         id="g120">
        <g
           id="g126">
          <g
             id="g128">
            <path
               d="m 367.027,241.692 v -85.333 l 9.25,6.026 c 0.208,1.126 0.268,2.36 0.203,3.715 v 0 c -0.407,8.496 0.113,17.034 -0.209,25.537 v 0 c -0.164,4.325 1.158,7.059 5.201,8.286 v 0 c 3.967,-1.395 5.174,-4.083 5.004,-8.206 v 0 c -0.306,-7.37 -0.133,-14.768 -0.103,-22.755 v 0 l 4.32,2.815 c 1.399,9.99 2.449,19.457 3.232,28.01 v 0 l -0.067,-0.303 0.142,2.272 c 0.355,2.98 -4.188,4.542 -4.188,4.542 v 0 c 5.607,1.348 5.111,6.743 5.111,6.743 v 0 l 0.043,-0.365 c 1.236,17.634 1.265,29.016 1.265,29.016 v 0 z m 9.527,-32.755 v 22.785 h 9.71 0.089 c 0,-4.56 0.183,-9.144 -0.089,-13.694 v 0 -2.29 l -3.044,-2.136 c -0.036,-0.028 -0.075,-0.059 -0.11,-0.088 v 0 c -1.681,-1.365 -3.541,-2.525 -5.909,-4.135 v 0 l -0.647,-0.455 z"
               style="fill:url(#linearGradient136);stroke:none"
               id="path138" />
          </g>
        </g>
      </g>
    </g>
    <g
       id="g140">
      <g
         id="g142">
        <g
           id="g148">
          <g
             id="g150">
            <path
               d="m 178.6,315.031 v -42.759 l -21.133,42.759 h -18.785 l -25.158,-48.569 h 18.773 l 3.672,8.208 h 21.632 l 3.424,-8.208 h 18.744 l 0.357,-0.724 v 0.724 h 27.495 c 8.339,0 14.969,1.785 19.708,5.306 v 0 c 5.421,4.068 8.17,10.304 8.17,18.529 v 0 c 0,8.561 -2.931,15.042 -8.711,19.255 v 0 c -4.978,3.634 -11.915,5.479 -20.618,5.479 v 0 z m 18.542,-13.05 h 5.943 c 9.253,0 13.562,-3.635 13.562,-11.436 v 0 c 0,-4.172 -1.178,-7.14 -3.502,-8.823 v 0 c -2.087,-1.506 -5.472,-2.271 -10.06,-2.271 v 0 h -5.943 z m -49.951,-3.005 4.985,-11.317 h -10.262 z"
               style="fill:url(#linearGradient158);stroke:none"
               id="path160" />
          </g>
        </g>
      </g>
    </g>
    <g
       id="g162">
      <g
         id="g164">
        <g
           id="g170">
          <g
             id="g172">
            <path
               d="m 247,310.166 c -6.564,-4.48 -9.892,-11.309 -9.892,-20.3 v 0 c 0,-16.04 10.501,-24.175 31.211,-24.175 v 0 c 7.601,0 15.937,1.105 24.775,3.283 v 0 l 1.16,0.286 v 25.712 h -28.849 v -11.754 h 11.757 v -4.03 c -2.876,-0.808 -5.527,-1.218 -7.887,-1.218 v 0 c -4.262,0 -7.555,1.002 -9.783,2.977 v 0 c -2.304,2.053 -3.471,5.177 -3.471,9.29 v 0 c 0,3.97 1.008,7.177 2.994,9.528 v 0 c 2.122,2.466 5.023,3.665 8.872,3.665 v 0 c 4.441,0 6.923,-1.716 7.805,-5.4 v 0 l 0.279,-1.172 h 18.597 l -0.069,1.589 c -0.493,11.495 -9.021,17.323 -25.348,17.323 v 0 c -9.218,0 -16.67,-1.886 -22.151,-5.604"
               style="fill:url(#linearGradient180);stroke:none"
               id="path182" />
          </g>
        </g>
      </g>
    </g>
    <g
       id="g184">
      <g
         id="g186">
        <g
           id="g192">
          <g
             id="g194">
            <path
               d="m 488.766,315.031 -20.6,-39.779 c -0.027,0.185 -0.046,0.358 -0.064,0.525 v 0 l -0.835,7.564 c -0.403,3.545 -1.776,6.1 -4.079,7.59 v 0 c -0.447,0.29 -0.942,0.548 -1.488,0.773 v 0 c 0.805,0.429 1.548,0.928 2.219,1.496 v 0 c 2.595,2.168 3.911,5.127 3.911,8.794 v 0 c 0,4.741 -1.691,8.272 -5.026,10.493 v 0 c -1.925,1.292 -4.704,2.07 -8.504,2.384 v 0 c -1.333,0.107 -4.037,0.16 -8.269,0.16 v 0 h -27.632 v -42.759 l -21.131,42.759 h -18.79 l -22.045,-42.569 v 42.569 h -17.709 v -27.09 l -18.292,27.09 h -21.608 v -48.569 h 17.648 v 27.03 l 17.613,-27.03 h 20.822 V 266.2 l 0.138,0.262 h 17.053 l 3.672,8.208 h 21.63 l 3.425,-8.208 h 18.742 l 0.358,-0.724 v 0.724 h 16.769 v 17.836 h 8.073 c 2.59,0 3.432,-0.428 3.676,-0.615 v 0 c 0.25,-0.189 0.849,-0.879 1.004,-3.177 v 0 l 0.432,-6.291 c 0.196,-2.952 0.579,-5.164 1.171,-6.759 v 0 l 0.369,-0.994 h 30.967 l 3.672,8.208 h 21.629 l 3.426,-8.208 h 20.443 l -24,48.569 z m -52.072,-12.28 h 7.116 c 4.49,0 4.49,-2.054 4.49,-3.042 v 0 c 0,-0.977 0,-3.01 -4.49,-3.01 v 0 h -7.116 z m 60.586,-3.775 4.981,-11.317 H 492 Z m -110.288,0 4.981,-11.317 h -10.261 z"
               style="fill:url(#linearGradient202);stroke:none"
               id="path204" />
          </g>
        </g>
      </g>
    </g>
    <g
       id="g206">
      <g
         id="g208">
        <g
           id="g214">
          <g
             id="g216">
            <path
               d="m 534.425,309.705 c -5.754,-4.5 -8.671,-11.196 -8.671,-19.9 v 0 c 0,-8.083 2.875,-14.328 8.548,-18.567 v 0 c 4.959,-3.681 11.629,-5.547 19.825,-5.547 v 0 c 7.835,0 14.054,1.113 18.486,3.306 v 0 c 6.115,3.034 9.572,8.262 10.281,15.538 v 0 l 0.163,1.673 h -19.096 l -0.199,-1.291 c -0.727,-4.634 -3.426,-6.794 -8.492,-6.794 v 0 c -3.64,0 -6.289,1.095 -8.093,3.342 v 0 c -1.664,2.099 -2.51,5.113 -2.51,8.958 v 0 c 0,3.977 0.851,7.112 2.526,9.318 v 0 c 1.83,2.398 4.532,3.564 8.262,3.564 v 0 c 4.208,0 6.487,-1.711 7.17,-5.386 v 0 l 0.233,-1.246 h 18.943 l -0.107,1.626 c -0.758,11.551 -9.587,17.409 -26.239,17.409 v 0 c -8.827,0 -15.901,-2.018 -21.03,-6.003"
               style="fill:url(#linearGradient224);stroke:none"
               id="path226" />
          </g>
        </g>
      </g>
    </g>
    <g
       id="g228">
      <g
         id="g230">
        <g
           id="g236">
          <g
             id="g238">
            <path
               d="m 626.401,362.446 -10.323,-38.262 6.449,-23.743 -28.67,23.743 h -25.996 l 37.362,-29.552 -17.272,-33.778 h 19.846 l 16.736,32.201 8.747,-32.201 9.536,-31.25 c -19.279,5.268 -61.825,16.478 -90.142,20.838 v 0 l 79.154,-27.756 -1.608,0.274 -0.172,0.319 c -54.301,15.727 -121.856,18.882 -121.856,18.882 v 0 c 0,0 114.132,-22.147 152.544,-50.997 v 0 l 3.434,27.665 c 0,0 5.161,-4.441 10.739,-5.616 v 0 l 3.362,-0.262 c -2.004,0.415 -11.49,5.375 -26.78,59.747 v 0 c -0.03,-0.003 -0.058,-0.006 -0.088,-0.01 v 0 l -6.418,23.631 -6.703,22.283 15.884,1.727 9.603,-29.391 c 0,0 3.932,28.995 -6.864,48.931 v 0 l -1.152,-3.463 -21.143,-2.004 -7.233,31.379 z"
               style="fill:url(#linearGradient246);stroke:none"
               id="path248" />
          </g>
        </g>
      </g>
    </g>
    <g
       id="g250">
      <g
         id="g252">
        <g
           id="g258">
          <g
             id="g260">
            <path
               d="m 62.969,330.984 -19.971,1.893 -1.088,3.27 C 31.713,317.317 35.428,289.93 35.428,289.93 v 0 l 9.07,27.761 14.357,-1.561 -15.442,-54.658 h 0.319 C 31.221,220.638 23.474,216.629 21.729,216.267 v 0 l 3.175,0.248 c 5.269,1.11 10.144,5.304 10.144,5.304 v 0 l 3.244,-26.131 c 36.281,27.251 144.084,48.171 144.084,48.171 v 0 c 0,0 -63.808,-2.981 -115.097,-17.836 v 0 l -0.164,-0.301 -1.519,-0.258 74.765,26.216 C 113.613,247.561 73.428,236.974 55.218,231.997 v 0 l 9.008,29.517 4.227,15.565 2.411,8.532 h 12.988 c 3.064,0 5.019,-0.417 5.869,-1.252 v 0 c 0.986,-0.947 1.163,-2.883 0.532,-5.806 v 0 l -1.823,-8.52 c -0.81,-3.758 -1.13,-6.612 -0.956,-8.561 v 0 h 21.382 c -0.049,4.26 0.156,7.698 0.618,10.315 v 0 l 1.763,10.233 c 0.706,4.176 0.001,7.1 -2.116,8.77 v 0 c -1.703,1.364 -4.816,2.172 -9.339,2.423 v 0 c 4.577,0.334 8.556,1.656 11.938,3.967 v 0 c 3.749,2.533 6.239,5.972 7.466,10.316 v 0 c 1.613,5.707 0.826,9.869 -2.361,12.486 v 0 c -1.85,1.531 -5.087,2.492 -9.71,2.883 v 0 c -1.688,0.139 -5.342,0.209 -10.966,0.209 v 0 H 80.003 l -9.28,34.399 -0.923,3.15 z m 14.95,-20.399 h 11.695 c 5.429,0 7.562,-2.06 6.397,-6.181 v 0 c -1.156,-4.092 -4.449,-6.139 -9.877,-6.139 v 0 H 74.439 Z"
               style="fill:url(#linearGradient268);stroke:none"
               id="path270" />
          </g>
        </g>
      </g>
    </g>
  </g>
</svg>
